<?xml version="1.0" encoding="UTF-8"?>
<svg width="32" height="32" viewBox="0 0 32 32" xmlns="http://www.w3.org/2000/svg">
  <!-- Base Circle -->
  <circle cx="16" cy="16" r="15" fill="#2563eb" />
  <circle cx="16" cy="16" r="13" fill="#ffffff" />
  
  <!-- Clock Elements -->
  <circle cx="16" cy="16" r="1.5" fill="#1e293b" />
  <!-- Hour hand -->
  <line x1="16" y1="16" x2="16" y2="10" stroke="#1e293b" stroke-width="1.5" stroke-linecap="round" transform="rotate(45, 16, 16)" />
  <!-- Minute hand -->
  <line x1="16" y1="16" x2="22" y2="16" stroke="#1e293b" stroke-width="1" stroke-linecap="round" />
  
  <!-- Clock Markers -->
  <line x1="16" y1="5" x2="16" y2="7" stroke="#1e293b" stroke-width="1" />
  <line x1="16" y1="25" x2="16" y2="27" stroke="#1e293b" stroke-width="1" />
  <line x1="5" y1="16" x2="7" y2="16" stroke="#1e293b" stroke-width="1" />
  <line x1="25" y1="16" x2="27" y2="16" stroke="#1e293b" stroke-width="1" />
  
  <!-- Dollar Sign -->
  <path d="M16.5,11 C18.5,11 20,12 20,14 C20,16 18,17 16,17 C14,17 12,18 12,20 C12,22 13.5,23 15.5,23" stroke="#16a34a" stroke-width="2" stroke-linecap="round" />
  <line x1="16" y1="9" x2="16" y2="11" stroke="#16a34a" stroke-width="2" stroke-linecap="round" />
  <line x1="16" y1="23" x2="16" y2="25" stroke="#16a34a" stroke-width="2" stroke-linecap="round" />
  
  <!-- Flame Element -->
  <path d="M24,28 Q26,24 28,28 L24,28 Z" fill="#ef4444" />
  <path d="M24,28 Q26,23 28,28" fill="none" stroke="#f97316" stroke-width="1" />
</svg>